<svg width="164" height="200" viewBox="0 0 164 200" fill="none" xmlns="http://www.w3.org/2000/svg">
<path d="M16.1869 199.827L13.5793 195.943H11.4747V199.827H8.79742V187.691H14.3611C17.2297 187.691 18.9503 189.199 18.9503 191.696V191.732C18.9503 193.691 17.8898 194.921 16.3427 195.493L19.3152 199.827H16.1856H16.1869ZM16.2389 191.834C16.2389 190.69 15.4394 190.1 14.1342 190.1H11.4747V193.585H14.1861C15.4899 193.585 16.2375 192.891 16.2375 191.868V191.833L16.2389 191.834Z" fill="#0C3279"/>
<path d="M23.7856 199.827V187.691H32.9655V190.066H26.4452V192.529H32.1824V194.904H26.4452V197.453H33.0516V199.828H23.7856V199.827Z" fill="#0C3279"/>
<path d="M46.9287 199.827L45.8244 197.126H40.7158L39.6116 199.827H36.9028L42.0798 187.695H44.5302L49.7071 199.827H46.9287ZM43.2223 190.812L41.6055 194.748H44.8391L43.2223 190.812Z" fill="#0C3279"/>
<path d="M54.0015 199.827V187.691H56.6788V197.4H62.7468V199.827H54.0015Z" fill="#0C3279"/>
<path d="M74.8115 199.827V187.691H83.991V190.066H77.4711V192.529H83.208V194.904H77.4711V197.453H84.078V199.828H74.8115V199.827Z" fill="#0C3279"/>
<path d="M93.205 200C91.363 200 89.502 199.36 88.042 198.058L89.625 196.169C90.719 197.07 91.867 197.642 93.259 197.642C94.355 197.642 95.015 197.209 95.015 196.499V196.463C95.015 195.787 94.598 195.441 92.563 194.921C90.111 194.297 88.529 193.621 88.529 191.21V191.176C88.529 188.973 90.302 187.518 92.788 187.518C94.562 187.518 96.074 188.072 97.309 189.06L95.918 191.072C94.84 190.327 93.779 189.875 92.754 189.875C91.729 189.875 91.189 190.344 91.189 190.933V190.967C91.189 191.764 91.711 192.025 93.815 192.563C96.283 193.204 97.674 194.088 97.674 196.203V196.239C97.674 198.648 95.832 200 93.205 200Z" fill="#0C3279"/>
<path d="M107.931 190.152V199.827H105.254V190.152H101.55V187.689H111.634V190.152H107.931Z" fill="#0C3279"/>
<path d="M125.181 199.827L124.077 197.126H118.968L117.864 199.827H115.155L120.332 187.695H122.783L127.96 199.827H125.183H125.181ZM121.473 190.812L119.857 194.748H123.092L121.475 190.812H121.473Z" fill="#0C3279"/>
<path d="M137.764 190.152V199.827H135.087V190.152H131.383V187.689H141.468V190.152H137.764Z" fill="#0C3279"/>
<path d="M145.935 199.827V187.691H155.115V190.066H148.595V192.529H154.332V194.904H148.595V197.453H155.201V199.828H145.934L145.935 199.827Z" fill="#0C3279"/>
<path d="M8.79883 159.564V109.841H46.3999V119.567H19.6912V129.658H43.1924V139.387H19.6912V149.832H46.7566V159.564H8.79883Z" fill="#0C3279"/>
<path d="M94.947 154.129L90.706 147.945L86.495 141.805C92.837 139.454 97.176 134.418 97.176 126.39V126.245C97.176 116.018 90.128 109.841 78.3719 109.841H55.5854V155.146C55.5854 158.49 58.3051 159.563 61.6575 159.563H66.5543V143.647H75.1684L84.013 156.821L84.165 157.047C85.242 158.567 87.015 159.563 89.021 159.563H98.672L94.947 154.129ZM86.066 126.959C86.066 131.146 83.006 133.986 77.6585 133.986H66.5543V119.713H77.4508C82.793 119.713 86.066 122.128 86.066 126.818V126.959Z" fill="#0C3279"/>
<path d="M133.98 109.841H123.942L107.767 147.748L104.219 156.059L102.724 159.564H109.732C112.254 159.564 114.415 158.037 115.341 155.864L115.349 155.844L118.357 148.487H139.291L143.813 159.563H155.201L133.98 109.841ZM122.241 138.71L128.819 122.694L135.396 138.71H122.241Z" fill="#0C3279"/>
<path d="M155.202 168.658H8.79883V178.602H155.202V168.658Z" fill="#D91A32"/>
<path d="M0 105.199L82.003 68.2667V0L0 58.7826V105.199Z" fill="#D91A32"/>
<path d="M164 105.199L81.9971 68.2667V0L164 58.7826V105.199Z" fill="#910237"/>
<path d="M146.056 113.422V113.403C146.056 111.548 147.567 109.975 149.485 109.975C151.402 109.975 152.894 111.53 152.894 113.385V113.403C152.894 115.259 151.383 116.832 149.466 116.832C147.548 116.832 146.056 115.277 146.056 113.422ZM152.498 113.403V113.385C152.498 111.717 151.204 110.353 149.485 110.353C147.765 110.353 146.453 111.738 146.453 113.404V113.423C146.453 115.091 147.746 116.456 149.467 116.456C151.188 116.456 152.498 115.07 152.498 113.403ZM147.973 111.491H149.664C150.24 111.491 150.637 111.641 150.891 111.896C151.099 112.103 151.203 112.375 151.203 112.724V112.743C151.203 113.299 150.91 113.666 150.456 113.854L151.326 115.116H150.164L149.427 114.013H148.983V115.116H147.973V111.489V111.491ZM149.645 113.233C149.994 113.233 150.193 113.072 150.193 112.809V112.79C150.193 112.498 149.975 112.356 149.635 112.356H148.983V113.233H149.645Z" fill="#0C3279"/>
</svg>
