<svg width="260" height="38" viewBox="0 0 260 38" fill="none" xmlns="http://www.w3.org/2000/svg">
<path fill-rule="evenodd" clip-rule="evenodd" d="M119.391 30.5019L119.572 30.6855C119.572 30.6855 120.431 29.8564 126.467 25.3149C126.974 24.9245 127.037 24.0008 126.567 23.5467C126.112 23.0761 125.2 23.1013 124.806 23.6325C120.244 29.6573 119.391 30.5019 119.391 30.5019M113.831 30.7526L114.068 31C114.068 31 118.333 26.6817 127.482 19.4693C128.105 18.9843 128.19 17.8352 127.607 17.2579C127.037 16.6674 125.895 16.7213 125.404 17.3756C118.103 26.4486 113.831 30.7526 113.831 30.7526M109.027 29.3055L109.314 29.598C109.314 29.598 115.276 23.6325 126.166 15.0091C126.935 14.4307 126.977 13.0617 126.278 12.37C125.601 11.6817 124.217 11.6993 123.653 12.491C114.965 23.3169 109.027 29.3055 109.027 29.3055M108.359 7.18602C108.876 6.79126 108.91 5.89396 108.456 5.41012C107.979 4.96037 107.069 5.00545 106.693 5.50469C102.145 11.5659 101.298 12.417 101.298 12.417L101.491 12.6028C101.491 12.6028 102.332 11.7462 108.359 7.18602M114.595 6.58597C115.273 6.08893 115.304 4.96071 114.731 4.39C114.155 3.8105 112.991 3.89737 112.514 4.51426C105.299 13.6577 101 17.9276 101 17.9276L101.238 18.1673C101.238 18.1673 105.543 13.8919 114.595 6.58597M119.476 8.33988C120.279 7.77467 120.291 6.39903 119.605 5.69527C118.924 5.0058 117.545 5.03769 116.97 5.82942C108.369 16.7213 102.41 22.6835 102.41 22.6835L102.684 22.9694C102.684 22.9694 108.679 17.0193 119.476 8.33988M105.456 26.8481L105.142 26.5369C105.142 26.5369 111.66 20.0359 120.454 8.6712C121.068 7.80249 122.678 7.69693 123.456 8.47986C124.247 9.25071 124.204 10.8089 123.276 11.4819C111.972 20.335 105.456 26.8481 105.456 26.8481" fill="#E60012"/>
<path fill-rule="evenodd" clip-rule="evenodd" d="M260 22.6383C260 27.1102 256.451 30.1553 251.255 30.1553C248.55 30.1553 245.539 29.3137 242.96 27.7837L244.412 24.8354C246.555 26.0441 249.086 27.0623 251.569 27.0623C254.013 27.0623 255.692 25.6461 255.692 23.449C255.692 21.5136 254.533 20.4082 251.968 19.8932L249.278 19.3655C245.764 18.693 243.859 16.4619 243.859 13.1284C243.859 9.03531 247.08 6.15724 251.876 6.15724C254.578 6.15724 257.066 6.91267 258.889 7.99367L257.507 10.8973C255.468 9.87053 253.832 9.28747 252.046 9.28747C249.711 9.28747 248.201 10.6409 248.201 12.6454C248.201 14.2594 249.004 15.1638 251.347 15.7033L254.229 16.3651C258.309 17.3109 260 19.6762 260 22.6383V22.6383ZM148.088 22.6383C148.088 27.1102 144.546 30.1553 139.348 30.1553C136.647 30.1553 133.628 29.3137 131.047 27.7837L132.526 24.8354C134.639 26.0441 137.174 27.0623 139.668 27.0623C142.101 27.0623 143.792 25.6461 143.792 23.449C143.792 21.5136 142.639 20.4082 140.053 19.8932L137.355 19.3655C133.837 18.693 131.947 16.4619 131.947 13.1284C131.947 9.03531 135.193 6.15724 139.97 6.15724C142.671 6.15724 145.156 6.91267 146.98 7.99367L145.611 10.8973C143.57 9.87053 141.927 9.28747 140.152 9.28747C137.808 9.28747 136.282 10.6409 136.282 12.6454C136.282 14.2594 137.082 15.1638 139.444 15.7033L142.329 16.3651C146.41 17.3109 148.088 19.6762 148.088 22.6383V22.6383ZM169.513 18.5111C169.513 25.6461 165.734 30.1553 159.84 30.1553C153.895 30.1553 150.214 25.5961 150.214 18.2813C150.214 11.0409 153.895 6.46367 159.747 6.46367C166.306 6.46367 169.513 11.7591 169.513 18.5111V18.5111ZM164.951 18.6934C164.951 11.7595 162.939 9.65918 159.747 9.65918C156.192 9.65918 154.735 12.201 154.735 17.8444C154.735 24.6889 156.465 26.9893 159.924 26.9893C163.025 26.9893 164.951 24.5655 164.951 18.6934V18.6934ZM190.477 28.055L187.694 30.2968C186.586 29.4435 185.998 28.588 185.604 27.0623C183.819 29.2743 181.663 30.2968 178.906 30.2968C176.067 30.2968 173.853 28.9934 172.914 26.9336C172.508 26.0441 172.377 24.7769 172.377 23.1766V7.22442L176.41 6.41898V22.0456C176.41 24.3406 176.632 25.228 177.44 25.9866C178.02 26.5292 179.028 26.9889 180 26.9889C182.019 26.9889 184.141 25.3993 185.066 23.449V7.31805L189.115 6.50729V23.4011C189.115 25.7036 189.606 27.29 190.477 28.055V28.055ZM205.576 6.59852L204.152 10.7236C203.748 10.5959 203.452 10.5001 202.987 10.5001C200.514 10.5001 198.383 12.6004 198.383 15.0689V29.5273H194.296V13.0569C194.296 10.3193 193.997 8.84777 193.45 7.44119L197.404 6.41871C197.803 7.27309 198.167 8.7435 198.167 9.87026V10.281C199.936 7.6774 201.84 6.37402 204.193 6.37402C204.72 6.37402 205.22 6.4634 205.576 6.59852V6.59852ZM221.625 27.0623C219.506 29.1775 217.636 29.9893 214.796 29.9893C211.604 29.9893 209.203 28.8657 207.66 26.6207C206.192 24.5194 205.518 21.918 205.518 18.5111C205.518 13.4604 207.122 10.5451 209.246 8.6161C210.887 7.14462 212.846 6.33599 215.014 6.33599C217.422 6.33599 219.367 7.14462 221.051 8.70015L218.925 11.5388C217.456 10.2355 216.443 9.78116 215.014 9.78116C213.324 9.78116 211.867 10.6664 211.108 12.2006C210.352 13.7317 210.047 15.9682 210.047 19.0516C210.047 22.1871 210.672 24.2481 211.816 25.5078C212.616 26.3452 213.727 26.841 215.014 26.841C216.666 26.841 218.295 26.0441 219.62 24.5194L221.625 27.0623ZM240.837 19.1928H227.308V19.7333C227.308 21.6464 227.569 23.1253 228.232 24.1999C229.39 25.9863 231.223 26.8407 233.34 26.8407C235.436 26.8407 237.201 26.1247 238.802 24.6883L240.339 27.1408C238.171 29.0868 235.559 30.0199 232.675 30.0199C226.505 30.0199 222.729 25.5076 222.729 18.1608C222.729 14.2592 223.475 11.7588 225.398 9.46807C227.168 7.37204 229.351 6.37402 232.104 6.37402C234.592 6.37402 236.573 7.17626 238.124 8.7967C240.079 10.814 240.785 13.3144 240.837 18.4619V19.1928ZM236.574 16.1421C236.574 13.9843 236.096 12.2011 235.2 11.0712C234.496 10.1923 233.433 9.51562 232.012 9.51562C228.895 9.51562 227.348 12.0724 227.348 16.1421H236.574ZM4.38591 29.5712C4.22253 29.9318 3.98959 30.6522 3.98959 31.2799C3.98959 33.6122 5.90059 34.8623 9.36315 34.8623C13.0091 34.8623 14.8221 33.3728 14.8221 31.0171C14.8221 28.8657 13.0903 27.6166 8.68856 27.6166C7.75994 27.6166 6.74172 27.5666 5.89742 27.4932C5.32086 27.9071 4.63889 28.588 4.38908 29.5467L4.38591 29.5712ZM20.4992 8.93183C19.2618 9.9192 18.8169 10.1214 17.5942 10.1767C17.0725 10.2107 16.8817 10.1394 15.9763 9.9192C17.1294 11.3917 17.5647 12.6004 17.5647 14.04C17.5647 17.2585 15.4008 20.9846 9.58872 20.9846C8.21423 21.4293 6.07345 22.4518 6.07345 23.4488C6.07345 24.1105 6.61945 24.5649 7.6851 24.5649H11.095C16.7658 24.5649 19.1216 27.2461 19.1216 30.7359C19.1216 35.5802 15.1762 37.9997 9.75842 37.9997C3.55427 37.9997 0 35.7973 0 32.084C0 31.1466 0.182351 30.4774 0.40054 29.7965C0.628215 29.1857 1.21532 27.744 2.65516 26.762C1.8604 26.2279 1.40927 25.399 1.40927 24.3787C1.40927 22.2699 3.2391 21.4049 5.76883 20.4462C2.35792 19.412 0.531243 17.0776 0.531243 13.9836C0.531243 9.46807 3.94743 6.4634 9.04693 6.4634C10.2559 6.4634 11.1761 6.56235 12.5053 6.95176C13.669 7.31777 14.8569 7.6774 15.8392 7.6774C17.0851 7.6774 17.219 7.22414 18.4175 6.37402L20.4992 8.93183ZM13.0448 13.8984C13.0448 11.0405 11.7547 9.70312 8.96669 9.70312C6.35053 9.70312 4.92334 11.1246 4.92334 13.9835C4.92334 16.769 6.3948 18.1607 9.00885 18.1607C11.6703 18.1607 13.0448 16.6743 13.0448 13.8984V13.8984ZM28.8547 29.4867C28.0177 29.8463 27.2989 29.9889 26.3302 29.9889C24.7438 29.9889 23.713 29.4867 22.8645 28.2727C22.1973 27.3342 22.017 26.5831 22.017 24.3785V4.03949C22.017 0.878414 21.8969 2.78294 21.5332 1.03482L25.7937 0.147461C26.1942 1.62426 26.1942 0.335785 26.1942 3.10426V23.3039C26.1942 25.7032 26.3302 26.2235 26.7771 26.6203C27.0385 26.9331 27.6636 27.0619 28.1463 26.9331L28.8547 29.4867ZM48.9576 18.5111C48.9576 25.6461 45.1925 30.1553 39.2919 30.1553C33.3397 30.1553 29.6642 25.5961 29.6642 18.2813C29.6642 11.0409 33.3397 6.46367 39.2002 6.46367C45.7659 6.46367 48.9576 11.7591 48.9576 18.5111V18.5111ZM44.3958 18.6934C44.3958 11.7595 42.392 9.65918 39.2003 9.65918C35.6587 9.65918 34.1904 12.201 34.1904 17.8444C34.1904 24.6889 35.9191 26.9893 39.3764 26.9893C42.4911 26.9893 44.3958 24.5655 44.3958 18.6934V18.6934ZM69.3293 17.9344C69.3293 22.6 67.9179 26.1707 65.3397 28.2731C63.9251 29.4435 62.3578 29.9893 60.5448 29.9893C58.3239 29.9893 57.0074 28.9104 55.634 27.0325C55.3704 28.4529 55.3167 28.8115 54.9594 29.5275H51.1036C51.5073 28.4529 51.6834 27.2059 51.6834 24.297V6.27747C51.6834 3.77287 51.4209 2.15775 50.9761 0.913958L55.3167 0C55.634 1.66938 55.7615 2.87381 55.7615 4.83898V6.5988C55.7615 7.54999 55.7204 8.65121 55.634 8.9321L55.7615 9.03531C57.2635 7.07546 58.5516 6.50729 60.7725 6.50729C66.0543 6.50729 69.3293 10.8579 69.3293 17.9344V17.9344ZM64.7169 17.8437C64.7169 14.8401 64.5472 13.8069 63.7915 12.4195C62.9345 10.8576 61.5242 10.0947 59.8441 10.0947C58.5096 10.0947 58.1839 10.2352 57.0287 11.0704C56.2392 11.6747 56.2065 12.1195 55.7617 12.6887V24.0637C56.8284 25.3203 57.8055 26.4417 59.746 26.4417C61.3018 26.4417 62.7701 25.7033 63.4711 24.4318C64.1857 23.1763 64.7169 21.2867 64.7169 17.8437V17.8437ZM90.444 27.6869L88.3707 30.4777C86.9962 29.9318 85.9274 28.8115 85.3993 27.2464C84.8143 27.9646 82.9539 30.2 79.0898 30.2C74.647 30.2 71.9096 27.9273 71.9096 23.6214C71.9096 18.4356 76.0288 15.6596 83.2164 15.6596C83.754 15.6596 84.1956 15.6596 84.7722 15.7033V14.2052C84.7722 11.5846 84.4138 9.78116 81.317 9.78116C78.958 9.78116 76.2923 10.9366 74.4867 12.3304L72.6137 9.37684C74.7808 8.12135 77.6278 6.41898 81.9315 6.41898C85.1685 6.41898 87.5275 7.62979 88.3707 10.0195C88.7228 11.0005 88.8092 11.7591 88.8092 13.9434C88.8092 15.5639 88.6237 19.008 88.6237 22.2701C88.6237 25.3653 88.7228 26.6207 90.444 27.6869V27.6869ZM84.6879 18.5111C84.0554 18.4622 83.7055 18.4356 83.3566 18.4356C80.2967 18.4356 78.4184 19.008 77.5382 20.0443C76.6992 21.0285 76.3946 21.8286 76.3946 23.3043C76.3946 25.7728 77.6278 27.2059 79.893 27.2059C81.7555 27.2059 83.5242 26.0441 84.5508 24.2481L84.6879 18.5111ZM99.8262 29.4867C98.9872 29.8463 98.2726 29.9889 97.2986 29.9889C95.707 29.9889 94.6898 29.4867 93.8339 28.2727C93.1752 27.3342 93.0002 26.5831 93.0002 24.3785V4.03949C93.0002 0.878414 92.8642 2.78294 92.4995 1.03482L96.7663 0.147461C97.17 1.62426 97.17 0.335785 97.17 3.10426V23.3039C97.17 25.7032 97.2986 26.2235 97.7339 26.6203C98.0196 26.9331 98.6415 27.0619 99.1274 26.9331L99.8262 29.4867Z" fill="#231815"/>
</svg>
