<svg version="1.1" id="Layer_1" xmlns:x="ns_extend;" xmlns:i="ns_ai;" xmlns:graph="ns_graphs;" xmlns="http://www.w3.org/2000/svg" xmlns:xlink="http://www.w3.org/1999/xlink" x="0px" y="0px" viewBox="0 0 186.8 75" style="enable-background:new 0 0 186.8 75;" xml:space="preserve">
 <style type="text/css">
  .st0{fill:#00338D;}
 </style>
 <metadata>
  <sfw xmlns="ns_sfw;">
   <slices>
   </slices>
   <sliceSourceBounds bottomLeftOrigin="true" height="75" width="186.8" x="103.2" y="-240.4">
   </sliceSourceBounds>
  </sfw>
 </metadata>
 <g>
  <path class="st0" d="M145.3,0v37.4c-1.3,1-2.4,2.1-3.5,3.3V0h-41.5v34.1h-3.4V0H55.5v34.1H52V0H10.6v38.9L0,74.2h9.3L14,58.6h1.3
		L23,74.2h11.2l-7.5-15.6h17l-4.7,15.6h10.2l4.7-15.6h2.2v0h3.2h0.3h19.2l-4.5,15.6h10.2l4.4-15.6h4.6l0.1,15.6h8.6l9.9-15.6h6.5
		l-3.3,15.6h10.1l3.3-15.6h5.8c-0.2,4.8,1,9.2,4.2,12.1c3.9,3.6,9.9,4.3,14.4,4.3c6.1,0,12.4-0.9,18.7-2.3l3.5-14.1h11.5V0H145.3z
		 M50.6,36.1l-0.6,2l-5.5,18.3l-0.2,0.6H26.1l-1.4-3l19.5-20H31.7L16.4,50.6l4.9-16.5h-9.3V1.5h38.5V36.1z M61.3,51.6L61.3,51.6
		c-0.4,0-0.8,0.1-1.2,0.1c-0.6,0-1,0-1.4,0l-2.5,0l1.1-4.2l0.5-2.1l1.3-4.9c0.6,0,1.1,0,1.7,0h1.9c3.3,0,5.3,0.2,6.1,1.2
		c0.6,0.8,0.5,2.1-0.2,4.2C67.5,49.4,66,51.3,61.3,51.6 M89.3,57.1l4.1-14.4l0.1,14.4H89.3z M95.5,34.1h-9.6l-6.6,23H69
		c5.2-1.9,8.4-5.6,9.4-11.1c0.8-4.2,0.4-7-1.3-9.1c-2.6-3.1-7.8-2.9-12.4-2.9c-0.8,0-7.6,0-7.6,0V1.5h38.5V34.1z M118.8,57.1H113
		l8.8-13.8L118.8,57.1z M140.4,34.7l0,8c-2.7,3.7-4.4,7.8-5.1,11c-0.3,1.1-0.5,2.3-0.6,3.4h-5.7l4.8-23l-16.3,0l-14.6,23h-1.1V1.5
		h38.5V34.7z M162.6,66.5c-2.2,0.4-4.4,0.7-6.5,0.7c-5.6,0-9.4-2.6-9.5-8.6h17.9L162.6,66.5z M185.3,57.1h-9.7l1.6-6.4h-19.4
		l-1.6,6.4h-9.4v-1.3c0.1-0.7,0.3-1.5,0.5-2.3c1.7-6.9,6.3-13.8,14.1-13.8c3.1,0,6.2,1.2,5.8,5.5h11.6c0.5-2,1.2-5.4-1-8.6
		c-2.5-3.4-7.4-4.8-13.9-4.8c-4.6,0-11.3,0.7-17.1,4.5V1.5h38.5V57.1z">
  </path>
 </g>
</svg>